# xmcd
#
# Track frame offsets:
#  150
#  19492
#  39581
#  57043
#  78097
#  95489
#  114055
#  130468
#  150020
#  169493
#  185001
#  202597
#  219758
#  240701
#  257603
#  279718
#
# Disc length: 3951 seconds
#
# Revision: 0
# Processed by: cddbd v1.5.2PL0 Copyright (c) Steve Scherf et al.
# Submitted via: AltoMP3_Maker 3.0
#
DISCID=cb0f6d10
DTITLE=台語勁爆 - 台語勁爆
DYEAR=1900
DGENRE=
TTITLE0=愛人醉落去
TTITLE1=海海人生
TTITLE2=愛你這呢深
TTITLE3=一生甘願跟你走
TTITLE4=浪子的心情
TTITLE5=紅燈碼頭
TTITLE6=最後的酒杯
TTITLE7=愛情這呢冷
TTITLE8=夢中情
TTITLE9=醉歸暝
TTITLE10=生命的戀歌
TTITLE11=流浪的歌聲
TTITLE12=故鄉
TTITLE13=惜別的海岸
TTITLE14=牽紅線
TTITLE15=人生親像伴電影
EXTD=
EXTT0=
EXTT1=
EXTT2=
EXTT3=
EXTT4=
EXTT5=
EXTT6=
EXTT7=
EXTT8=
EXTT9=
EXTT10=
EXTT11=
EXTT12=
EXTT13=
EXTT14=
EXTT15=
PLAYORDER=
